<svg xmlns:xlink="http://www.w3.org/1999/xlink" xmlns="http://www.w3.org/2000/svg" class="MuiSvgIcon-root MuiSvgIcon-fontSizeMedium lendo-css-10qrq6e" focusable="false" aria-hidden="true" viewBox="0 0 28 28" height="28" width="28" fill="none"><circle cx="14" cy="14" r="13.5" stroke="#23417D" fill-opacity="0" fill="#000000"></circle><path d="M10.2848 11.9234H7.55256V20.6666H10.2848V11.9234ZM10.5307 8.91795C10.5321 8.71128 10.4929 8.50635 10.4151 8.31486C10.3373 8.12337 10.2226 7.94907 10.0775 7.80192C9.93237 7.65476 9.75969 7.53763 9.56929 7.45722C9.3789 7.37681 9.17454 7.33468 8.96786 7.33325H8.91868C8.4984 7.33325 8.09532 7.50021 7.79813 7.7974C7.50094 8.09459 7.33398 8.49766 7.33398 8.91795C7.33398 9.33824 7.50094 9.74131 7.79813 10.0385C8.09532 10.3357 8.4984 10.5027 8.91868 10.5027C9.12537 10.5077 9.33103 10.472 9.52392 10.3976C9.71681 10.3232 9.89314 10.2115 10.0428 10.0689C10.1925 9.92629 10.3127 9.7556 10.3964 9.56655C10.4801 9.37751 10.5257 9.17382 10.5307 8.96713V8.91795ZM20.6673 15.3551C20.6673 12.7267 18.9952 11.7048 17.334 11.7048C16.7901 11.6776 16.2485 11.7934 15.7634 12.0408C15.2782 12.2882 14.8664 12.6585 14.569 13.1147H14.4925V11.9234H11.9241V20.6666H14.6564V16.0163C14.6169 15.54 14.7669 15.0674 15.0739 14.7011C15.3808 14.3348 15.8199 14.1045 16.2957 14.06H16.3996C17.2684 14.06 17.9132 14.6065 17.9132 15.9835V20.6666H20.6455L20.6673 15.3551Z" fill="#23417D"></path></svg>