<svg xmlns:xlink="http://www.w3.org/1999/xlink" xmlns="http://www.w3.org/2000/svg" class="MuiSvgIcon-root MuiSvgIcon-fontSizeMedium lendo-css-10qrq6e" focusable="false" aria-hidden="true" viewBox="0 0 28 28" height="28" width="28" fill="none"><circle cx="14" cy="14" r="13.5" stroke="#23417D" fill-opacity="0" fill="#000000"></circle><g clip-path="url(#clip0_33153_34561)" fill-opacity="0" fill="#000000"><path fill-rule="evenodd" clip-rule="evenodd" d="M19.1851 8.28656C19.3498 8.21722 19.5302 8.19331 19.7073 8.21731C19.8844 8.24131 20.0519 8.31234 20.1922 8.42302C20.3326 8.5337 20.4407 8.67997 20.5053 8.84662C20.57 9.01326 20.5888 9.19419 20.5598 9.37056L19.0478 18.5419C18.9011 19.4266 17.9304 19.9339 17.1191 19.4932C16.4404 19.1246 15.4324 18.5566 14.5258 17.9639C14.0724 17.6672 12.6838 16.7172 12.8544 16.0412C13.0011 15.4632 15.3344 13.2912 16.6678 11.9999C17.1911 11.4926 16.9524 11.1999 16.3344 11.6666C14.7998 12.8252 12.3358 14.5872 11.5211 15.0832C10.8024 15.5206 10.4278 15.5952 9.97975 15.5206C9.16242 15.3846 8.40442 15.1739 7.78575 14.9172C6.94975 14.5706 6.99042 13.4212 7.78509 13.0866L19.1851 8.28656Z" fill="#23417D" fill-opacity="0"></path></g><defs><clipPath id="clip0_33153_34561"><rect width="16" height="16" fill="white" transform="translate(6 6)"></rect></clipPath></defs></svg>